<svg width="1400" height="600" viewBox="0 0 1400 600" fill="none" xmlns="http://www.w3.org/2000/svg">
<path d="M568.081 359.841C565.847 359.841 563.206 358.735 560.16 356.525C557.113 354.314 553.864 351.104 550.411 346.893C547.06 342.683 543.608 337.525 540.053 331.42C536.601 325.315 533.25 318.42 530 310.736L539.292 307.42C543.658 315.21 548.126 322.42 552.696 329.051C557.266 335.578 561.683 341.104 565.948 345.63C570.213 350.156 573.92 353.314 577.068 355.104C575.951 356.367 574.58 357.472 572.955 358.42C571.432 359.367 569.807 359.841 568.081 359.841Z" fill="black"/>
<path d="M917.51 322.894L918.532 318.946H942.959L944.167 322.894H917.51Z" fill="black"/>
<path d="M937.1 263.226L969.394 346.079" stroke="black" stroke-width="2.5" stroke-linecap="round"/>
<path d="M429.95 270.592V345.591" stroke="black" stroke-width="2.5" stroke-linecap="round"/>
<path d="M735.36 336.837V249.729L723.022 246.814C723.022 245.096 723.226 243.745 723.632 242.763C724.038 241.781 724.799 240.859 725.916 240H753.639C753.639 241.964 753.435 243.499 753.029 244.604C752.623 245.709 752.014 246.384 751.202 246.63L742.398 249.098L743.281 353.683C743.281 354.419 742.062 355.78 741.453 356.394C740.945 357.007 740.285 357.499 739.473 357.867C738.762 358.235 738.102 358.42 737.493 358.42C736.478 358.42 735.563 358.296 734.751 358.051C733.939 357.928 733.278 357.805 732.771 357.683L691.939 288.693L701.812 288.515L703.294 291.301L704.177 290.832L702.299 287.3L702.243 287.329V287.323L691.246 287.521L674.278 258.852V348.357L686.465 351.237C686.465 352.833 686.262 354.184 685.855 355.289C685.551 356.271 684.84 357.191 683.723 358.051H656C656 356.087 656.203 354.552 656.609 353.447C657.117 352.342 657.727 351.666 658.438 351.421L667.271 348.944V249.508L656 246.814C656 245.096 656.203 243.745 656.609 242.763C657.016 241.78 657.727 240.859 658.742 240H676.64L735.36 336.837Z" fill="black"/>
<path d="M646.021 276.789C644.397 276.789 643.128 276.578 642.214 276.157C641.3 275.736 640.69 275.052 640.386 274.105L637.053 263.463L601.849 265.482V303.315H630.409L632.465 293.367C633.48 293.367 634.496 293.526 635.512 293.842C636.527 294.158 637.391 294.789 638.102 295.736V317.999C637.391 318.946 636.527 319.578 635.512 319.894C634.496 320.104 633.48 320.209 632.465 320.209L630.333 310.262H601.849V348.89L641.31 351.528L644.956 334.735C646.378 334.735 647.494 334.946 648.307 335.367C649.221 335.788 650.033 336.42 650.744 337.262V358.104H579C579 356.419 579.203 355.104 579.609 354.156C580.117 353.209 580.727 352.631 581.438 352.42L589.357 350.213V265.224L579 262.736C579 261.263 579.203 260.105 579.609 259.263C580.016 258.421 580.777 257.631 581.894 256.895H646.021V276.789Z" fill="black"/>
<path d="M482.863 278.525C481.239 278.525 479.97 278.316 479.056 277.895C478.142 277.368 477.532 276.631 477.228 275.684L473.984 263.496L447.677 265.453V349.546L462.604 352.262C462.604 353.63 462.401 354.735 461.995 355.577C461.691 356.419 460.98 357.262 459.863 358.104H422.239C422.239 356.419 422.442 355.104 422.849 354.156C423.255 353.209 423.864 352.631 424.677 352.42L435.187 349.566V265.453L408.846 263.493L405.331 275.684C405.128 276.631 404.62 277.368 403.808 277.895C402.995 278.315 401.726 278.525 400 278.525V256.895H482.863V278.525Z" fill="black"/>
<path d="M527.889 256.895C534.489 256.895 539.973 258.105 544.34 260.526C548.808 262.842 552.159 266 554.393 270C556.728 273.895 557.896 278.21 557.896 282.946C557.896 288.315 556.474 293.368 553.631 298.105C550.788 302.841 546.726 306.684 541.445 309.631C536.165 312.578 529.818 314.052 522.405 314.052C519.867 314.052 517.175 313.894 514.332 313.578C512.5 313.307 510.774 312.969 509.153 312.566V349.941L520.577 352.262C520.577 353.841 520.374 355.052 519.968 355.894C519.663 356.736 518.952 357.472 517.835 358.104H486C486 356.419 486.203 355.104 486.609 354.156C487.117 353.209 487.727 352.631 488.438 352.42L496.51 350.236V265.217L486.305 262.736C486.305 261.263 486.457 260.105 486.762 259.263C487.168 258.316 487.879 257.526 488.895 256.895H527.889ZM507.021 265.895C507.692 265.721 508.403 265.553 509.152 265.391V305.338C508.248 305.103 507.486 304.852 506.868 304.578L509.152 307.263V305.338C510.331 305.644 511.752 305.919 513.418 306.157C516.464 306.473 519.41 306.631 522.253 306.631C527.229 306.631 531.291 305.631 534.438 303.631C537.688 301.631 540.125 298.999 541.75 295.736C543.375 292.473 544.188 288.894 544.188 284.999C544.187 278.371 542.376 273.274 538.755 269.708L538.042 269.028C534.316 265.571 529.256 263.842 522.862 263.842C519.816 263.842 516.921 264.053 514.18 264.474C512.345 264.756 510.669 265.062 509.152 265.391V263.684L507.021 265.895Z" fill="black"/>
<path d="M798.317 254.684C807.05 254.684 814.717 256.842 821.318 261.158C828.019 265.368 833.198 271.158 836.854 278.526C840.611 285.789 842.49 294.052 842.49 303.315C842.49 311.104 841.221 318.42 838.682 325.262C836.245 332.104 832.741 338.156 828.172 343.419C823.602 348.577 818.271 352.63 812.178 355.577C806.085 358.525 799.434 359.998 792.224 359.998C783.491 359.998 775.773 357.893 769.07 353.683C762.47 349.367 757.291 343.525 753.533 336.157C749.878 328.788 748.05 320.472 748.05 311.209C748.05 303.104 749.319 295.63 751.858 288.788C754.498 281.947 758.103 275.999 762.673 270.947C767.344 265.789 772.727 261.79 778.82 258.948C784.912 256.106 791.411 254.684 798.317 254.684ZM793.747 261.895C787.744 261.895 782.21 263.701 777.172 267.291C772.132 270.883 768.12 275.98 765.115 282.531L765.112 282.536C762.199 289.009 760.759 296.629 760.759 305.368C760.759 319.921 763.885 331.526 770.249 340.071C776.643 348.653 785.477 352.947 796.641 352.947C803.147 352.946 808.899 351.037 813.855 347.211C818.783 343.407 822.587 338.208 825.283 331.656C828.087 325.091 829.477 317.637 829.477 309.316C829.477 294.763 826.351 283.207 819.983 274.766C813.691 266.185 804.906 261.895 793.747 261.895ZM795.782 351.935C795.731 351.934 795.68 351.935 795.629 351.934C795.563 351.932 795.496 351.928 795.43 351.926C795.547 351.93 795.665 351.932 795.782 351.935ZM828.477 309.316C828.477 309.572 828.476 309.828 828.473 310.082C828.472 310.191 828.469 310.299 828.467 310.408C828.472 310.045 828.476 309.681 828.476 309.315C828.476 308.987 828.474 308.661 828.471 308.337C828.474 308.662 828.477 308.988 828.477 309.316ZM794.758 262.907C794.815 262.908 794.872 262.911 794.929 262.912C794.831 262.91 794.733 262.907 794.635 262.905L794.758 262.907Z" fill="black"/>
<path d="M916.045 255.788C916.045 257.472 915.843 258.788 915.44 259.736C915.036 260.683 914.43 261.261 913.623 261.472L906.022 263.551L876.239 354.629C875.835 355.682 875.18 356.524 874.272 357.155C873.465 357.787 872.556 358.208 871.547 358.418C870.639 358.734 869.731 358.892 868.823 358.892C868.116 358.892 867.107 358.787 865.795 358.576C864.585 358.366 863.626 358.155 862.92 357.945L844.97 298.104H855.332L871.74 346.063L898.519 263.989L887.741 261.63C887.741 260.157 887.943 258.999 888.347 258.156C888.751 257.314 889.457 256.525 890.466 255.788H916.045Z" fill="black"/>
<path d="M926.499 255.789C927.108 255.789 927.718 255.842 928.327 255.947C929.038 255.947 929.749 256.052 930.46 256.263L966.146 351.186L976.004 353.367C976.004 354.736 975.801 355.841 975.395 356.683C974.988 357.525 974.227 358.367 973.11 359.209H942.493C942.493 357.525 942.697 356.209 943.103 355.262C943.61 354.315 944.22 353.735 944.931 353.525L952.965 351.32L922.916 271.7L895.011 350.78L906.697 353.367C906.697 354.736 906.494 355.841 906.088 356.683C905.783 357.525 904.971 358.367 903.651 359.209H878.67C878.67 357.525 878.873 356.209 879.279 355.262C879.787 354.315 880.397 353.735 881.108 353.525L887.436 351.523L920.102 258.789C920.406 257.947 920.914 257.316 921.625 256.895C922.438 256.474 923.25 256.21 924.063 256.105C924.976 255.894 925.788 255.789 926.499 255.789Z" fill="black"/>
<path d="M832.03 264.315L840.983 277.089" stroke="black" stroke-width="2.5" stroke-linecap="round"/>
</svg>
